# xmcd CD database file
#
# Track frame offsets:
#	182
#	26082
#	42975
#	67962
#	94405
#	117662
#	157332
#	187780
#	210185
#	227490
#	252602
#	275985
#
# Disc length: 4118 seconds
#
# Revision: 0
# Processed by: cddbd v1.5.2PL0 Copyright (c) Steve Scherf et al.
# Submitted via: CDex 1.91
#
DISCID=b010140c
DTITLE=Chet Jaeger's Night Blooming Jazzmen - Creole Belles and Other Dixieland Delights
DYEAR=1994
DGENRE=Jazz
TTITLE0=Creole Belles
TTITLE1=Mama's Gone, Good Bye
TTITLE2=Once In A While
TTITLE3=The Old New Orleans Blues
TTITLE4=Muskrat Ramble
TTITLE5=Love Songs Of The Nile
TTITLE6=Wolverine Blues
TTITLE7=Love Me With A Feeling
TTITLE8=I Shall Not Be Moved
TTITLE9=Squeeze Me
TTITLE10=Shojoji No Tanuki - Bayashi - and I Want To Be Happy
TTITLE11=Burbon Street Parade 
EXTD=YEAR: 1994
EXTT0=
EXTT1=
EXTT2=
EXTT3=
EXTT4=
EXTT5=
EXTT6=
EXTT7=
EXTT8=
EXTT9=
EXTT10=
EXTT11=
PLAYORDER=
